<?xml version="1.0" ?><!DOCTYPE svg  PUBLIC '-//W3C//DTD SVG 1.1//EN'  'http://www.w3.org/Graphics/SVG/1.1/DTD/svg11.dtd'><svg enable-background="new 0 0 512 512" height="512px" id="Layer_1" version="1.1" viewBox="0 0 512 512" width="512px" xml:space="preserve" xmlns="http://www.w3.org/2000/svg" xmlns:xlink="http://www.w3.org/1999/xlink"><g><circle cx="256.158" cy="262.129" fill="#F4F4F4" r="142.973"/><circle cx="259.249" cy="267.34" opacity="0.1" r="34.966"/><path d="M245.689,242.321l-60.701-60.705c-3.313-3.311-8.679-3.311-11.992,0c-3.312,3.314-3.312,8.68,0,11.991    l60.702,60.703L245.689,242.321z" fill="#4A8D8A"/><path d="M284.145,269.501l60.314-15.208c6.093-1.537,9.847-7.479,8.311-13.574    c-1.539-6.094-7.658-9.545-13.754-8.008l-60.311,15.21L284.145,269.501z" fill="#4A8D8A"/><circle cx="256.158" cy="262.129" fill="#F67876" r="14.307"/><path d="M121.121,274.623c0-82.842,66.504-150,148.543-150c37.23,0,71.26,13.832,97.328,36.683    c-27.36-29.819-66.59-48.509-110.178-48.509c-82.68,0-149.704,67.229-149.704,150.16c0,49.284,23.671,93.021,60.23,120.399    C138.872,356.026,121.121,317.42,121.121,274.623z" opacity="0.1"/><path d="M256.157,69.346c-106.178,0-192.252,86.074-192.252,192.251c0,106.18,86.074,192.252,192.252,192.252    c106.179,0,192.252-86.072,192.252-192.252C448.409,155.42,362.336,69.346,256.157,69.346z M256.157,404.571    c-78.961,0-142.972-64.01-142.972-142.974c0-78.961,64.011-142.972,142.972-142.972c78.962,0,142.974,64.011,142.974,142.972    C399.131,340.562,335.119,404.571,256.157,404.571z" fill="#656565"/><circle cx="256.158" cy="262.129" fill="none" r="26.928" stroke="#3B556C" stroke-miterlimit="10" stroke-width="10"/><path d="M154.048,325.733l102.577-71.073l7.244,10.453l-102.576,71.076c-2.889,2-6.848,1.281-8.849-1.607    C150.443,331.696,151.163,327.735,154.048,325.733z" fill="#F67876"/></g></svg>